<svg width="1080" height="595" viewBox="0 0 1080 595" fill="none" xmlns="http://www.w3.org/2000/svg">
<g filter="url(#filter0_d_1_1678)">
<path d="M1011.48 311.514V301.381H996.986C999.53 299.511 1001.62 297.089 1003.09 294.296C1004.56 291.503 1005.38 288.413 1005.49 285.257C1005.49 273.098 978.307 263.229 973.329 261.379L972.888 252.128C973.941 252.083 974.959 251.735 975.819 251.126C976.679 250.516 977.344 249.67 977.734 248.691C977.269 249.195 976.703 249.597 976.073 249.87C975.444 250.143 974.764 250.282 974.078 250.277C973.524 250.276 972.974 250.187 972.448 250.013C971.631 249.72 970.904 249.223 970.335 248.569C969.766 247.915 969.374 247.126 969.198 246.277C969.021 245.428 969.065 244.548 969.325 243.722C969.586 242.895 970.054 242.148 970.685 241.554C969.948 241.85 969.281 242.296 968.727 242.866C968.173 243.435 967.745 244.114 967.469 244.858C967.233 245.538 967.134 246.258 967.177 246.976C967.22 247.694 967.404 248.397 967.719 249.044C968.034 249.69 968.474 250.269 969.014 250.745C969.553 251.221 970.181 251.586 970.862 251.819C971.257 251.862 971.656 251.862 972.051 251.819L971.611 261.203C965.089 263.463 958.791 266.325 952.799 269.75C951.169 252.568 930.551 245.035 926.146 239.528L925.793 230.408C926.592 230.346 927.359 230.067 928.011 229.601C928.663 229.135 929.176 228.501 929.494 227.765C928.974 228.286 928.322 228.656 927.608 228.834C926.894 229.013 926.145 228.993 925.441 228.778C924.963 228.615 924.521 228.358 924.142 228.024C923.764 227.689 923.455 227.283 923.234 226.828C923.013 226.374 922.884 225.88 922.854 225.375C922.825 224.871 922.895 224.365 923.062 223.888C923.267 223.299 923.615 222.769 924.075 222.346C923.51 222.558 922.999 222.893 922.579 223.328C922.16 223.762 921.843 224.285 921.652 224.857C921.341 225.905 921.431 227.03 921.903 228.015C922.375 229 923.196 229.774 924.207 230.188C924.499 230.23 924.796 230.23 925.088 230.188L924.736 239.484C922.238 241.902 919.474 244.03 916.498 245.828L914.956 197.367H915.881L920.903 190.23H914.735L913.458 150.58H914.515L918.612 143.311H913.237L912.665 124.28C913.52 123.526 914.203 122.597 914.667 121.555C915.131 120.513 915.364 119.384 915.352 118.244C915.352 114.543 909.845 111.459 907.951 110.49C908.157 110.376 908.331 110.211 908.454 110.01C908.578 109.81 908.647 109.58 908.656 109.345C908.613 109.094 908.499 108.861 908.327 108.673C908.155 108.486 907.933 108.352 907.687 108.288V103.882C907.821 103.815 907.935 103.716 908.02 103.592C908.105 103.469 908.157 103.326 908.171 103.177C908.171 103.013 908.121 102.853 908.026 102.719C907.931 102.584 907.797 102.483 907.642 102.428V99.4765C908.562 99.469 909.45 99.1383 910.151 98.5424C910.851 97.9464 911.32 97.1231 911.475 96.2164C911.268 96.7879 910.919 97.2971 910.46 97.6956C910.001 98.0941 909.448 98.3687 908.853 98.4935C908.258 98.6183 907.641 98.589 907.06 98.4085C906.48 98.2279 905.955 97.9022 905.536 97.462C905.117 97.0219 904.817 96.4819 904.665 95.8934C904.513 95.3049 904.514 94.6873 904.668 94.0991C904.821 93.511 905.122 92.9719 905.543 92.5329C905.963 92.0939 906.489 91.7696 907.07 91.5907C906.128 91.7282 905.267 92.1999 904.644 92.9198C904.021 93.6397 903.678 94.5596 903.678 95.5116C903.679 96.4468 904.019 97.3499 904.635 98.0543C905.25 98.7586 906.099 99.2168 907.026 99.3443V102.12C906.886 102.19 906.767 102.297 906.682 102.428C906.596 102.56 906.548 102.712 906.541 102.869C906.546 103.02 906.594 103.167 906.68 103.292C906.766 103.417 906.886 103.515 907.026 103.574V107.979C906.787 108.073 906.581 108.237 906.437 108.449C906.292 108.661 906.214 108.912 906.214 109.169C906.214 109.425 906.292 109.676 906.437 109.889C906.581 110.101 906.787 110.264 907.026 110.358C905.131 111.327 899.624 114.411 899.624 118.112C899.612 119.252 899.846 120.381 900.31 121.423C900.773 122.464 901.456 123.394 902.312 124.147L901.695 143.179H896.32L900.418 150.448H901.475L900.241 190.098H894.162L899.052 197.367H900.021L898.876 233.668C897.758 232.297 896.519 231.029 895.175 229.88C890.373 225.827 878.786 217.853 875.835 212.258V201.861C877.072 201.83 878.274 201.439 879.291 200.735C880.309 200.03 881.098 199.043 881.562 197.896C881.001 198.499 880.317 198.975 879.558 199.294C878.798 199.613 877.98 199.767 877.156 199.746C876.512 199.751 875.871 199.647 875.262 199.438C873.808 198.928 872.616 197.863 871.947 196.475C871.278 195.087 871.187 193.491 871.693 192.036C871.995 191.124 872.526 190.305 873.235 189.657C872.375 189.984 871.596 190.498 870.957 191.16C870.317 191.823 869.832 192.618 869.535 193.49C868.987 195.079 869.092 196.821 869.827 198.332C870.563 199.844 871.867 201.002 873.456 201.552C873.923 201.616 874.398 201.616 874.865 201.552V212.037C871.87 217.456 860.283 225.254 855.525 229.659C854.313 230.659 853.193 231.765 852.177 232.964H849.842C855.481 205.297 824.863 194.592 819.929 190.494C817.842 188.925 816.152 186.888 814.995 184.547L814.686 170.493C814.676 170.419 814.638 170.352 814.582 170.303C814.525 170.255 814.453 170.228 814.378 170.229C814.303 170.228 814.231 170.255 814.174 170.303C814.117 170.352 814.08 170.419 814.069 170.493L813.761 184.547C812.6 186.885 810.911 188.922 808.827 190.494C806.536 192.389 798.694 195.737 791.513 201.508L790.103 156.572H791.029L795.919 149.303H789.883L788.606 109.653H789.663L793.76 102.384H788.385L787.813 83.3523C788.657 82.5896 789.332 81.6586 789.795 80.6191C790.258 79.5796 790.498 78.4547 790.5 77.3168C790.5 73.6161 784.993 70.5323 783.055 69.5631C783.294 69.4694 783.499 69.3057 783.644 69.0935C783.789 68.8813 783.866 68.6304 783.866 68.3736C783.866 68.1167 783.789 67.8658 783.644 67.6536C783.499 67.4414 783.294 67.2778 783.055 67.1841V62.7786C783.189 62.7119 783.303 62.6122 783.388 62.4889C783.473 62.3656 783.525 62.2226 783.539 62.0737C783.54 61.9095 783.489 61.7492 783.394 61.6151C783.299 61.4809 783.165 61.3795 783.011 61.3247V58.6815C783.926 58.6573 784.805 58.3207 785.502 57.7276C786.199 57.1345 786.673 56.3207 786.843 55.4214C786.579 56.0945 786.118 56.6727 785.521 57.0812C784.924 57.4896 784.218 57.7095 783.495 57.7123C782.668 57.6828 781.877 57.367 781.258 56.8189C780.638 56.2707 780.228 55.5243 780.098 54.7072C779.968 53.8901 780.126 53.0532 780.544 52.3397C780.963 51.6261 781.617 51.0803 782.394 50.7956C781.452 50.9331 780.591 51.4049 779.968 52.1248C779.345 52.8446 779.002 53.7646 779.002 54.7165C779.003 55.6517 779.343 56.5548 779.959 57.2592C780.574 57.9635 781.423 58.4218 782.35 58.5493V61.3247C782.208 61.3864 782.088 61.4881 782.003 61.6172C781.919 61.7463 781.874 61.8973 781.874 62.0517C781.874 62.206 781.919 62.357 782.003 62.4861C782.088 62.6153 782.208 62.7169 782.35 62.7786V67.1841C782.111 67.2778 781.905 67.4414 781.761 67.6536C781.616 67.8658 781.538 68.1167 781.538 68.3736C781.538 68.6304 781.616 68.8813 781.761 69.0935C781.905 69.3057 782.111 69.4694 782.35 69.5631C780.411 70.5323 774.904 73.6161 774.904 77.3168C774.903 78.4593 775.147 79.5889 775.618 80.6298C776.089 81.6708 776.777 82.599 777.636 83.3523L777.019 102.384H771.644L775.741 109.653H776.799L775.565 149.303H769.486L773.318 156.748H774.244L772.966 197.323C772.281 194.581 771.053 192.004 769.354 189.745C758.34 175.339 743.934 172.784 738.515 170.493C738.515 170.493 738.911 170.493 738.911 170.097C738.911 169.7 738.691 169.7 738.427 169.656C738.488 169.662 738.55 169.656 738.609 169.636C738.668 169.617 738.722 169.586 738.767 169.544C738.813 169.502 738.849 169.452 738.874 169.395C738.899 169.339 738.912 169.278 738.911 169.216C738.911 169.087 738.86 168.964 738.769 168.873C738.679 168.782 738.555 168.731 738.427 168.731H737.766L737.325 152.475C737.326 152.396 737.31 152.318 737.278 152.245C737.247 152.172 737.2 152.107 737.142 152.053C737.084 152 737.016 151.958 736.941 151.932C736.867 151.906 736.787 151.896 736.709 151.902C736.63 151.896 736.551 151.906 736.476 151.932C736.401 151.958 736.333 152 736.275 152.053C736.217 152.107 736.171 152.172 736.139 152.245C736.108 152.318 736.092 152.396 736.092 152.475L735.651 168.731H735.035C734.969 168.724 734.903 168.732 734.841 168.754C734.779 168.776 734.723 168.811 734.676 168.858C734.63 168.904 734.595 168.96 734.573 169.022C734.551 169.084 734.543 169.15 734.55 169.216C734.543 169.275 734.549 169.336 734.569 169.392C734.589 169.449 734.621 169.501 734.663 169.543C734.706 169.585 734.757 169.618 734.814 169.637C734.871 169.657 734.931 169.663 734.99 169.656C734.877 169.666 734.771 169.716 734.69 169.796C734.609 169.877 734.56 169.983 734.55 170.097C734.55 170.317 734.55 170.405 734.902 170.493C729.484 172.784 715.078 175.339 704.064 189.745C703.543 190.476 703.072 191.242 702.654 192.036H696.222V173.886C696.222 161.11 676.485 153.62 668.599 151.109C668.584 150.379 668.33 149.674 667.877 149.101C667.424 148.528 666.796 148.12 666.088 147.937L665.824 131.549C667.098 131.482 668.326 131.052 669.364 130.311C670.402 129.569 671.207 128.547 671.683 127.363C671.118 127.967 670.436 128.45 669.679 128.784C668.922 129.117 668.105 129.293 667.278 129.302C666.602 129.292 665.933 129.173 665.295 128.949C664.541 128.692 663.846 128.288 663.249 127.76C662.652 127.232 662.165 126.591 661.817 125.875C661.469 125.158 661.266 124.379 661.22 123.584C661.174 122.788 661.287 121.992 661.551 121.24C661.881 120.282 662.441 119.42 663.181 118.729C662.284 119.079 661.474 119.618 660.805 120.31C660.136 121.002 659.624 121.83 659.304 122.738C658.727 124.403 658.835 126.228 659.603 127.814C660.371 129.4 661.737 130.616 663.401 131.196C663.812 131.221 664.224 131.221 664.634 131.196L664.326 147.805C663.66 148.012 663.077 148.428 662.665 148.991C662.253 149.554 662.032 150.235 662.035 150.933C662.035 150.933 662.035 150.933 662.035 151.153C655.119 153.4 639.567 159.48 635.602 169.128H633.135C644.501 146.219 636.88 101.635 559.519 71.8099C559.519 71.5455 559.519 71.2812 559.519 71.0169C559.514 69.5792 559.03 68.1842 558.145 67.0516C557.26 65.9189 556.023 65.1131 554.629 64.761L554.056 31.4554C557.233 31.372 560.315 30.3595 562.923 28.543C565.53 26.7265 567.548 24.1856 568.726 21.2346C567.321 22.7095 565.634 23.8868 563.764 24.6966C561.895 25.5064 559.882 25.9321 557.845 25.9485C556.179 25.95 554.525 25.6669 552.955 25.1114C551.1 24.4722 549.39 23.474 547.922 22.1738C546.453 20.8737 545.255 19.2969 544.396 17.5337C543.537 15.7705 543.034 13.8554 542.915 11.8976C542.796 9.93988 543.064 7.97788 543.703 6.12366C544.53 3.78022 545.922 1.67689 547.756 0C544.631 1.18552 541.947 3.30572 540.07 6.0717C538.193 8.83768 537.214 12.115 537.267 15.4572C537.32 18.7995 538.402 22.0442 540.366 24.7493C542.33 27.4544 545.079 29.4884 548.241 30.5743C549.265 30.9484 550.33 31.1998 551.413 31.3232L550.796 64.8051C549.511 65.2596 548.397 66.1005 547.608 67.2126C546.82 68.3247 546.394 69.6535 546.39 71.0169C546.39 71.0169 546.39 71.4574 546.39 71.6777C468.721 101.503 461.056 146.175 472.422 169.128H469.999C465.946 159.259 450.262 153.268 443.566 151.109C443.558 150.377 443.307 149.668 442.852 149.094C442.398 148.52 441.766 148.113 441.055 147.937L440.79 131.549C442.068 131.498 443.304 131.075 444.345 130.331C445.386 129.588 446.187 128.556 446.65 127.363C446.089 127.974 445.408 128.461 444.65 128.794C443.892 129.128 443.073 129.301 442.244 129.302C441.569 129.292 440.899 129.173 440.262 128.949C438.738 128.428 437.483 127.324 436.773 125.878C436.062 124.433 435.954 122.765 436.473 121.24C436.802 120.271 437.379 119.405 438.147 118.729C436.856 119.183 435.738 120.026 434.947 121.143C434.156 122.259 433.732 123.594 433.732 124.962C433.732 126.331 434.156 127.665 434.947 128.782C435.738 129.899 436.856 130.742 438.147 131.196C438.558 131.218 438.97 131.218 439.381 131.196L439.072 147.805C438.406 148.012 437.824 148.428 437.411 148.991C436.999 149.554 436.778 150.235 436.781 150.933C436.781 150.933 436.781 150.933 436.781 151.153C428.851 153.752 409.159 161.418 409.159 173.886V192.036H402.771C402.368 191.243 401.912 190.477 401.405 189.745C390.347 175.339 375.985 172.784 370.566 170.493C370.566 170.493 370.919 170.493 370.919 170.097C370.902 169.986 370.85 169.884 370.77 169.805C370.691 169.726 370.589 169.674 370.478 169.656C370.595 169.656 370.707 169.61 370.79 169.527C370.872 169.445 370.919 169.333 370.919 169.216C370.919 169.087 370.868 168.964 370.777 168.873C370.686 168.782 370.563 168.731 370.434 168.731H370.214L369.773 152.475C369.762 152.319 369.692 152.173 369.578 152.067C369.463 151.961 369.313 151.902 369.157 151.902C369.003 151.911 368.858 151.973 368.745 152.078C368.633 152.182 368.56 152.323 368.54 152.475L368.099 168.731H367.483C367.354 168.731 367.231 168.782 367.14 168.873C367.049 168.964 366.998 169.087 366.998 169.216C366.998 169.333 367.044 169.445 367.127 169.527C367.21 169.61 367.322 169.656 367.438 169.656C367.328 169.674 367.226 169.726 367.146 169.805C367.067 169.884 367.015 169.986 366.998 170.097C366.998 170.317 366.998 170.405 367.394 170.493C361.976 172.784 347.57 175.339 336.556 189.745C334.9 192.014 333.676 194.568 332.943 197.279L331.445 156.748H332.415L337.261 149.479H331.225L329.992 109.829H331.049L335.146 102.56H329.771L329.155 83.5286C330.008 82.773 330.689 81.8433 331.153 80.8022C331.616 79.7611 331.851 78.6326 331.842 77.493C331.842 73.7923 326.379 70.7085 324.441 69.7393C324.658 69.6349 324.843 69.473 324.975 69.2711C325.107 69.0692 325.181 68.835 325.19 68.5939C325.178 68.319 325.083 68.0542 324.918 67.8341C324.753 67.6139 324.525 67.4488 324.264 67.3603V62.9548C324.406 62.8931 324.526 62.7915 324.611 62.6623C324.695 62.5332 324.741 62.3822 324.741 62.2279C324.741 62.0735 324.695 61.9225 324.611 61.7934C324.526 61.6643 324.406 61.5627 324.264 61.501V58.8577C325.177 58.8256 326.052 58.4862 326.748 57.8944C327.444 57.3027 327.919 56.4933 328.097 55.5976C327.833 56.2707 327.372 56.849 326.775 57.2574C326.178 57.6659 325.472 57.8857 324.749 57.8884C323.931 57.8632 323.147 57.5577 322.528 57.0232C321.908 56.4886 321.491 55.7574 321.347 54.9521C321.202 54.1468 321.339 53.3163 321.734 52.5997C322.129 51.8831 322.758 51.3239 323.516 51.0159C322.582 51.1629 321.731 51.6388 321.117 52.3578C320.503 53.0767 320.166 53.9914 320.167 54.9368C320.169 55.872 320.509 56.7751 321.124 57.4795C321.74 58.1838 322.589 58.642 323.516 58.7695V61.545C323.361 61.5998 323.227 61.7012 323.132 61.8354C323.037 61.9695 322.987 62.1297 322.987 62.294C323.001 62.4429 323.053 62.5859 323.138 62.7092C323.223 62.8325 323.337 62.9322 323.471 62.9989V67.4044C323.203 67.4854 322.965 67.6473 322.792 67.8681C322.619 68.0888 322.517 68.3576 322.502 68.6379C322.52 68.8767 322.597 69.1072 322.728 69.3076C322.859 69.508 323.039 69.6717 323.251 69.7833C321.357 70.7525 315.85 73.8364 315.85 77.5371C315.852 78.6749 316.092 79.7998 316.555 80.8393C317.017 81.8788 317.693 82.8099 318.537 83.5726L317.965 102.604H312.546L316.643 109.874H317.7L316.423 149.523H310.387L315.277 156.748H316.202L314.793 201.684C307.612 195.913 299.77 192.565 297.479 190.671C295.398 189.082 293.698 187.051 292.501 184.723L292.192 170.67C292.192 170.6 292.164 170.532 292.115 170.483C292.065 170.433 291.998 170.405 291.928 170.405C291.853 170.405 291.781 170.431 291.724 170.48C291.667 170.528 291.63 170.596 291.62 170.67L291.311 184.723C290.187 187.097 288.546 189.189 286.509 190.847C281.575 194.944 251.001 205.649 256.596 233.316H254.261C253.249 232.128 252.145 231.023 250.957 230.012C246.155 225.959 234.612 217.985 231.616 212.39V201.993C232.854 201.963 234.055 201.571 235.073 200.867C236.091 200.162 236.88 199.175 237.344 198.028C236.784 198.633 236.101 199.111 235.341 199.43C234.581 199.75 233.762 199.902 232.938 199.878C232.279 199.883 231.624 199.779 231 199.57C229.546 199.06 228.354 197.995 227.685 196.607C227.016 195.22 226.924 193.623 227.431 192.168C227.732 191.256 228.264 190.437 228.973 189.79C228.112 190.117 227.334 190.63 226.694 191.292C226.055 191.955 225.569 192.75 225.273 193.622C224.725 195.211 224.83 196.953 225.565 198.465C226.3 199.976 227.605 201.134 229.193 201.684C229.661 201.745 230.135 201.745 230.603 201.684V212.17C227.652 217.588 216.065 225.386 211.263 229.792C209.908 230.93 208.669 232.199 207.562 233.58L206.417 197.279H207.342L212.232 190.01H205.8L204.567 150.36H205.624L209.721 143.091H204.346L203.73 124.059C204.585 123.306 205.268 122.376 205.732 121.335C206.196 120.293 206.429 119.164 206.417 118.024C206.417 114.323 200.91 111.239 199.016 110.27C199.228 110.158 199.407 109.995 199.539 109.794C199.67 109.594 199.747 109.363 199.765 109.125C199.749 108.844 199.648 108.575 199.475 108.355C199.301 108.134 199.064 107.972 198.795 107.891V103.486C198.929 103.419 199.044 103.319 199.129 103.196C199.214 103.072 199.266 102.93 199.28 102.781C199.278 102.623 199.232 102.469 199.146 102.336C199.06 102.204 198.939 102.098 198.795 102.032V99.4765C199.708 99.4588 200.585 99.1235 201.277 98.5285C201.968 97.9334 202.431 97.1157 202.584 96.2164C202.377 96.7879 202.028 97.2971 201.569 97.6956C201.11 98.0941 200.556 98.3687 199.962 98.4935C199.367 98.6183 198.75 98.589 198.169 98.4085C197.589 98.2279 197.064 97.9022 196.645 97.462C196.226 97.0219 195.926 96.4819 195.774 95.8934C195.622 95.3049 195.623 94.6873 195.776 94.0991C195.93 93.511 196.231 92.9719 196.652 92.5329C197.072 92.0939 197.598 91.7696 198.179 91.5907C197.237 91.7282 196.376 92.1999 195.753 92.9198C195.13 93.6397 194.787 94.5596 194.786 95.5116C194.799 96.4508 195.148 97.3544 195.771 98.0578C196.393 98.7613 197.248 99.2178 198.179 99.3443V102.12C198.027 102.18 197.897 102.282 197.803 102.415C197.709 102.549 197.656 102.706 197.65 102.869C197.664 103.018 197.716 103.161 197.801 103.284C197.886 103.407 198.001 103.507 198.135 103.574V107.979C197.866 108.06 197.629 108.222 197.455 108.443C197.282 108.664 197.181 108.932 197.165 109.213C197.183 109.452 197.261 109.682 197.392 109.882C197.523 110.083 197.703 110.247 197.914 110.358C196.02 111.327 190.513 114.411 190.513 118.112C190.509 119.251 190.747 120.377 191.21 121.418C191.673 122.458 192.352 123.388 193.2 124.147L192.496 143.532H187.077L191.174 150.801H192.231L190.998 190.45H185.182L190.073 197.719H190.998L189.456 246.18C186.306 244.389 183.391 242.213 180.777 239.704V230.585C181.568 230.514 182.326 230.232 182.969 229.767C183.613 229.301 184.119 228.671 184.433 227.941C184.076 228.317 183.645 228.616 183.168 228.821C182.691 229.025 182.177 229.131 181.658 229.131C181.234 229.193 180.804 229.193 180.38 229.131C179.748 228.921 179.183 228.549 178.74 228.052C178.298 227.554 177.994 226.949 177.86 226.297C177.726 225.645 177.767 224.969 177.977 224.337C178.187 223.705 178.561 223.14 179.059 222.699C178.24 222.977 177.528 223.505 177.025 224.208C176.521 224.911 176.25 225.755 176.25 226.62C176.25 227.485 176.521 228.328 177.025 229.031C177.528 229.734 178.24 230.262 179.059 230.541C179.351 230.586 179.648 230.586 179.94 230.541L179.587 239.836C174.918 245.519 154.388 253.317 153.154 270.234C147.048 266.719 140.634 263.77 133.99 261.423L133.55 252.172C134.603 252.127 135.621 251.78 136.481 251.17C137.341 250.56 138.006 249.715 138.396 248.735C137.93 249.239 137.364 249.641 136.735 249.914C136.105 250.187 135.426 250.326 134.739 250.321C134.185 250.32 133.635 250.231 133.109 250.057C131.853 249.616 130.821 248.699 130.236 247.504C129.651 246.309 129.559 244.931 129.981 243.669C130.279 242.887 130.745 242.18 131.347 241.598C130.573 241.863 129.866 242.291 129.273 242.853C128.68 243.416 128.215 244.1 127.911 244.858C127.675 245.538 127.575 246.258 127.618 246.976C127.661 247.694 127.845 248.397 128.161 249.044C128.476 249.69 128.916 250.269 129.455 250.745C129.994 251.221 130.622 251.586 131.303 251.819C131.684 251.862 132.068 251.862 132.448 251.819L132.052 261.203C127.074 262.921 99.8917 272.922 99.8917 285.081C99.9961 290.287 102.149 295.241 105.883 298.87H96.6756V311.514H-277V685.63H1357.05V311.514H1011.48ZM1352.07 680.696H-272.066V316.448H96.6756C97.9612 316.414 99.1826 315.879 100.079 314.957C100.976 314.035 101.478 312.8 101.478 311.514V303.804H105.883C106.85 303.81 107.797 303.532 108.607 303.003C109.417 302.475 110.054 301.721 110.439 300.834C110.824 299.947 110.94 298.966 110.772 298.014C110.604 297.062 110.16 296.18 109.496 295.478C106.773 292.761 105.196 289.102 105.09 285.257C105.09 280.103 117.117 272.04 133.197 266.313C139.312 268.44 145.212 271.139 150.819 274.375C151.598 274.822 152.477 275.064 153.375 275.08C154.157 275.062 154.926 274.867 155.621 274.508C156.366 274.13 157.001 273.567 157.464 272.872C157.927 272.178 158.203 271.375 158.265 270.543C159.102 260.806 168.353 254.462 175.887 249.352C177.781 248.03 179.455 246.885 180.865 245.784C182.275 246.841 183.905 247.986 185.755 249.22L187.033 250.101C187.861 250.635 188.823 250.925 189.808 250.938C190.964 250.77 192.022 250.193 192.79 249.312C193.558 248.431 193.985 247.304 193.993 246.136L195.535 197.675C195.553 197.016 195.437 196.36 195.195 195.747C194.953 195.134 194.589 194.576 194.126 194.107C194.643 193.663 195.063 193.117 195.358 192.503C195.654 191.888 195.819 191.22 195.844 190.538L197.077 150.889C197.103 150.233 196.996 149.578 196.761 148.964C196.526 148.351 196.169 147.792 195.712 147.32C196.229 146.877 196.649 146.33 196.944 145.716C197.24 145.102 197.405 144.433 197.43 143.752L198.047 124.72C198.062 124.051 197.941 123.385 197.691 122.764C197.441 122.143 197.067 121.58 196.593 121.108L196.108 120.667C195.59 120.135 195.291 119.427 195.271 118.685C196.119 117.568 197.202 116.651 198.443 115.997C199.684 116.651 200.767 117.568 201.615 118.685C201.597 119.363 201.348 120.016 200.91 120.535C200.671 120.703 200.45 120.895 200.249 121.108C199.789 121.588 199.427 122.154 199.185 122.774C198.943 123.393 198.826 124.055 198.839 124.72L199.456 143.752C199.481 144.433 199.646 145.102 199.942 145.716C200.237 146.33 200.657 146.877 201.174 147.32C200.717 147.792 200.36 148.351 200.125 148.964C199.89 149.578 199.783 150.233 199.809 150.889L201.042 190.538C201.067 191.22 201.232 191.888 201.528 192.503C201.823 193.117 202.243 193.663 202.76 194.107C202.297 194.576 201.933 195.134 201.691 195.747C201.449 196.36 201.333 197.016 201.351 197.675L202.496 233.933C202.556 234.916 202.906 235.859 203.502 236.644C204.098 237.428 204.913 238.018 205.844 238.338C206.371 238.402 206.904 238.402 207.43 238.338C208.164 238.344 208.889 238.185 209.552 237.872C210.216 237.559 210.801 237.101 211.263 236.532C212.185 235.405 213.202 234.358 214.303 233.404L218.708 229.836C223.023 226.638 227.115 223.149 230.956 219.395C234.798 223.134 238.89 226.607 243.203 229.792C244.965 231.201 246.551 232.435 247.609 233.404C248.609 234.25 249.538 235.179 250.384 236.18C250.857 236.708 251.433 237.133 252.077 237.429C252.722 237.725 253.42 237.884 254.129 237.898H256.464C257.194 237.899 257.916 237.738 258.577 237.426C259.238 237.114 259.822 236.659 260.285 236.094C260.749 235.529 261.082 234.869 261.259 234.16C261.436 233.45 261.453 232.711 261.31 231.994C257.389 212.566 274.923 202.786 284.306 197.543C286.131 196.602 287.884 195.528 289.549 194.327C290.43 193.578 291.223 192.829 291.972 192.08C292.738 192.873 293.547 193.623 294.395 194.327C296.044 195.529 297.782 196.604 299.594 197.543C303.863 199.789 307.931 202.398 311.753 205.341C312.616 206.065 313.71 206.456 314.837 206.442C315.551 206.45 316.258 206.299 316.907 206.002C317.742 205.599 318.45 204.976 318.955 204.199C319.46 203.423 319.742 202.522 319.771 201.596L321.181 156.66C321.21 155.993 321.099 155.327 320.857 154.705C320.614 154.083 320.244 153.519 319.771 153.048C320.288 152.604 320.708 152.057 321.004 151.443C321.299 150.829 321.465 150.16 321.489 149.479L322.723 109.829C322.75 109.166 322.642 108.505 322.408 107.884C322.173 107.263 321.816 106.696 321.357 106.217C321.866 105.766 322.281 105.219 322.576 104.606C322.871 103.993 323.04 103.328 323.075 102.648L323.648 83.6166C323.665 82.9575 323.55 82.3016 323.307 81.6884C323.065 81.0752 322.701 80.5172 322.238 80.0482L321.709 79.5636C321.211 79.0185 320.915 78.3184 320.872 77.5811C321.721 76.4645 322.803 75.5472 324.044 74.8937C325.285 75.5472 326.368 76.4645 327.216 77.5811C327.211 78.2758 326.962 78.9467 326.511 79.4755C326.253 79.6172 326.027 79.8124 325.85 80.0482C325.387 80.5172 325.023 81.0752 324.781 81.6884C324.539 82.3016 324.423 82.9575 324.441 83.6166L325.057 102.648C325.082 103.33 325.247 103.998 325.543 104.613C325.838 105.227 326.258 105.773 326.776 106.217C326.311 106.694 325.947 107.26 325.704 107.88C325.462 108.501 325.347 109.164 325.366 109.829L326.599 149.479C326.624 150.16 326.789 150.829 327.085 151.443C327.38 152.057 327.8 152.604 328.317 153.048C327.859 153.527 327.501 154.094 327.267 154.715C327.032 155.335 326.925 155.997 326.952 156.66L328.229 197.191C328.265 198.382 328.731 199.52 329.541 200.395C330.351 201.27 331.45 201.822 332.635 201.949H333.164C334.252 201.962 335.313 201.609 336.177 200.945C337.04 200.282 337.654 199.347 337.922 198.292C338.467 196.194 339.409 194.22 340.697 192.477C347.045 184.51 355.787 178.795 365.632 176.177L369.465 174.811C370.478 175.251 371.756 175.648 373.254 176.177C383.108 178.775 391.856 184.493 398.189 192.477C398.45 192.858 398.685 193.255 398.894 193.666L399.202 194.195C399.641 194.973 400.282 195.618 401.058 196.06C401.834 196.502 402.715 196.726 403.608 196.706H409.996C411.304 196.706 412.559 196.186 413.485 195.261C414.41 194.336 414.93 193.081 414.93 191.772V173.621C414.93 166.132 428.146 159.215 439.16 155.559C439.811 155.346 440.411 155.001 440.922 154.545C441.415 154.994 442.002 155.326 442.641 155.515C452.289 158.598 463.479 164.326 466.166 170.758C466.525 171.638 467.134 172.394 467.916 172.934C468.698 173.474 469.621 173.774 470.572 173.797H472.995C473.871 173.839 474.742 173.644 475.517 173.234C476.292 172.823 476.943 172.211 477.4 171.463C477.822 170.741 478.044 169.92 478.044 169.084C478.044 168.248 477.822 167.426 477.4 166.705C475.032 161.418 473.782 155.7 473.729 149.908C473.676 144.116 474.821 138.375 477.092 133.046C483.259 117.187 500.705 94.4542 548.725 75.9951C549.744 75.6173 550.607 74.908 551.174 73.9812C551.741 73.0544 551.98 71.9639 551.853 70.8847C551.853 70.8847 551.853 70.5763 551.853 70.4001C551.928 70.1281 552.067 69.8782 552.259 69.6712C552.451 69.4642 552.689 69.3063 552.955 69.2106H553.395H553.924C554.209 69.2835 554.471 69.4265 554.686 69.6266C554.902 69.8266 555.064 70.0774 555.157 70.3561C555.136 70.5316 555.136 70.7091 555.157 70.8847C555.006 71.9724 555.229 73.0792 555.79 74.0237C556.35 74.9681 557.214 75.6943 558.241 76.0832C606.085 94.5423 623.443 117.231 629.611 133.046C631.869 138.373 633 144.11 632.931 149.895C632.863 155.68 631.598 161.389 629.214 166.661C628.846 167.408 628.674 168.236 628.712 169.068C628.751 169.9 628.999 170.709 629.434 171.419C629.902 172.158 630.554 172.762 631.327 173.171C632.1 173.581 632.966 173.782 633.84 173.753H636.307C637.25 173.723 638.164 173.425 638.944 172.894C639.724 172.364 640.337 171.623 640.712 170.758C643.444 164.326 654.678 158.687 664.238 155.515C664.902 155.301 665.516 154.957 666.044 154.501C666.53 154.958 667.12 155.291 667.762 155.471C679.437 159.215 691.949 165.912 691.949 173.577V191.728C691.949 193.037 692.468 194.292 693.394 195.217C694.319 196.142 695.574 196.662 696.883 196.662H703.227C704.119 196.677 704.998 196.451 705.773 196.01C706.548 195.568 707.19 194.926 707.632 194.151L707.941 193.578C708.133 193.172 708.37 192.788 708.646 192.433C714.97 184.459 723.7 178.742 733.537 176.132C735.079 175.604 736.356 175.207 737.369 174.767C738.383 175.207 739.704 175.604 741.202 176.132C751.039 178.742 759.769 184.459 766.093 192.433C767.407 194.177 768.351 196.171 768.869 198.292C769.156 199.336 769.776 200.258 770.635 200.918C771.494 201.578 772.544 201.94 773.627 201.949H774.2C775.385 201.822 776.484 201.27 777.294 200.395C778.103 199.52 778.569 198.382 778.605 197.191L779.883 156.66C779.91 155.997 779.803 155.335 779.568 154.715C779.333 154.094 778.976 153.527 778.517 153.048C779.034 152.604 779.454 152.057 779.75 151.443C780.045 150.829 780.211 150.16 780.235 149.479L781.513 109.829C781.531 109.164 781.416 108.501 781.174 107.88C780.932 107.26 780.568 106.694 780.103 106.217C780.62 105.773 781.04 105.227 781.336 104.613C781.631 103.998 781.797 103.33 781.821 102.648L782.394 83.6166C782.412 82.9575 782.296 82.3016 782.054 81.6884C781.811 81.0752 781.447 80.5172 780.984 80.0482L780.455 79.5636C779.957 79.0185 779.661 78.3184 779.618 77.5811C780.499 76.4788 781.593 75.565 782.834 74.8937C784.066 75.5607 785.146 76.4757 786.006 77.5811C785.965 78.2763 785.703 78.9402 785.257 79.4755C785.016 79.6406 784.794 79.8327 784.597 80.0482C784.139 80.5194 783.782 81.0787 783.547 81.6922C783.312 82.3056 783.205 82.9603 783.231 83.6166L783.804 102.648C783.828 103.33 783.993 103.998 784.289 104.613C784.585 105.227 785.004 105.773 785.522 106.217C785.063 106.696 784.705 107.263 784.471 107.884C784.236 108.505 784.129 109.166 784.156 109.829L785.39 149.479C785.414 150.16 785.579 150.829 785.875 151.443C786.171 152.057 786.59 152.604 787.108 153.048C786.649 153.527 786.291 154.094 786.057 154.715C785.822 155.335 785.715 155.997 785.742 156.66L787.152 201.596C787.171 202.525 787.449 203.429 787.955 204.208C788.461 204.986 789.175 205.608 790.015 206.002C790.665 206.299 791.372 206.45 792.086 206.442C793.212 206.456 794.307 206.065 795.17 205.341C798.992 202.398 803.06 199.789 807.329 197.543C809.141 196.604 810.878 195.529 812.527 194.327C813.375 193.623 814.184 192.873 814.951 192.08C815.699 192.829 816.492 193.578 817.374 194.327C819.023 195.529 820.76 196.604 822.572 197.543C832 202.786 849.534 212.566 845.613 231.994C845.468 232.71 845.484 233.448 845.659 234.157C845.835 234.865 846.165 235.526 846.626 236.091C847.084 236.655 847.662 237.109 848.317 237.422C848.972 237.734 849.689 237.897 850.415 237.898H852.75C853.46 237.892 854.161 237.737 854.806 237.44C855.452 237.144 856.027 236.714 856.495 236.18C857.341 235.179 858.269 234.25 859.27 233.404L863.675 229.836C867.981 226.626 872.073 223.139 875.923 219.395C879.765 223.134 883.857 226.607 888.17 229.792C889.932 231.201 891.518 232.435 892.576 233.404C893.701 234.346 894.734 235.393 895.659 236.532C896.12 237.107 896.703 237.571 897.366 237.892C898.029 238.212 898.756 238.379 899.492 238.382C900.018 238.387 900.54 238.297 901.034 238.118C901.972 237.808 902.794 237.221 903.391 236.434C903.989 235.648 904.335 234.699 904.382 233.712L905.528 197.455C905.554 196.799 905.446 196.144 905.212 195.531C904.977 194.917 904.62 194.358 904.162 193.887C904.692 193.45 905.123 192.907 905.426 192.292C905.73 191.677 905.9 191.004 905.924 190.318L907.158 150.669C907.176 150.009 907.06 149.354 906.818 148.74C906.575 148.127 906.212 147.569 905.748 147.1C906.266 146.656 906.685 146.11 906.981 145.496C907.277 144.882 907.442 144.213 907.466 143.532L908.083 124.5C908.094 123.151 907.572 121.852 906.629 120.887L906.101 120.447C905.615 119.897 905.335 119.197 905.308 118.464C905.433 117.714 905.821 117.032 906.401 116.54C906.982 116.049 907.719 115.779 908.48 115.779C909.241 115.779 909.977 116.049 910.558 116.54C911.138 117.032 911.526 117.714 911.652 118.464C911.614 119.139 911.368 119.786 910.947 120.315L910.242 120.887C909.787 121.37 909.432 121.937 909.198 122.557C908.963 123.177 908.854 123.837 908.876 124.5L909.449 143.532C909.483 144.211 909.653 144.876 909.948 145.489C910.243 146.102 910.657 146.65 911.167 147.1C910.709 147.571 910.352 148.131 910.118 148.744C909.883 149.357 909.775 150.012 909.801 150.669L911.035 190.318C911.059 190.999 911.224 191.668 911.52 192.282C911.816 192.897 912.236 193.443 912.753 193.887C912.289 194.356 911.926 194.914 911.683 195.527C911.441 196.14 911.325 196.796 911.343 197.455L912.885 245.916C912.878 246.828 913.125 247.723 913.6 248.502C914.075 249.28 914.758 249.911 915.572 250.321C916.27 250.671 917.039 250.852 917.819 250.85C918.808 250.858 919.775 250.566 920.595 250.013L921.74 249.22C923.679 247.898 925.353 246.753 926.807 245.607C928.172 246.665 929.802 247.766 931.608 249C939.01 254.022 948.261 260.234 949.231 270.19C949.313 271.023 949.602 271.821 950.071 272.514C950.54 273.206 951.175 273.77 951.918 274.155C952.615 274.505 953.385 274.686 954.165 274.684C955.039 274.699 955.898 274.453 956.632 273.979C962.124 270.878 967.872 268.254 973.813 266.137C989.893 271.82 1001.92 279.926 1001.92 285.081C1001.79 287.495 1001.13 289.85 999.979 291.976C998.828 294.101 997.219 295.945 995.268 297.372C994.432 297.994 993.816 298.867 993.511 299.863C993.206 300.86 993.227 301.928 993.571 302.911C993.915 303.895 994.565 304.743 995.425 305.331C996.285 305.92 997.31 306.218 998.352 306.183H1007.91V311.426C1007.91 312.734 1008.43 313.989 1009.36 314.915C1010.28 315.84 1011.54 316.36 1012.85 316.36H1353.44L1352.07 680.696Z" fill="url(#paint0_linear_1_1678)"/>
</g>
<defs>
<filter id="filter0_d_1_1678" x="-282" y="0" width="1644.05" height="695.63" filterUnits="userSpaceOnUse" color-interpolation-filters="sRGB">
<feFlood flood-opacity="0" result="BackgroundImageFix"/>
<feColorMatrix in="SourceAlpha" type="matrix" values="0 0 0 0 0 0 0 0 0 0 0 0 0 0 0 0 0 0 127 0" result="hardAlpha"/>
<feOffset dy="5"/>
<feGaussianBlur stdDeviation="2.5"/>
<feColorMatrix type="matrix" values="0 0 0 0 0 0 0 0 0 0 0 0 0 0 0 0 0 0 0.25 0"/>
<feBlend mode="normal" in2="BackgroundImageFix" result="effect1_dropShadow_1_1678"/>
<feBlend mode="normal" in="SourceGraphic" in2="effect1_dropShadow_1_1678" result="shape"/>
</filter>
<linearGradient id="paint0_linear_1_1678" x1="1276.86" y1="42.5345" x2="599.478" y2="1612.33" gradientUnits="userSpaceOnUse">
<stop offset="0.276728" stop-color="#EFD3D7"/>
<stop offset="1" stop-color="#8E9AAF"/>
</linearGradient>
</defs>
</svg>
